<svg width="500" height="500" viewBox="0 0 500 500" fill="none" xmlns="http://www.w3.org/2000/svg">
<g clip-path="url(#clip0_8_113)">
<path d="M233 501C155.333 501 78.1667 501 1.00003 501C1.00001 334.333 1.00001 167.667 1 1.00015C167.667 1.0001 334.333 1.0001 501 1.00006C501 167.667 501 334.333 501 501C411.833 501 322.667 501 233 501ZM286.982 220.303C292.249 213.287 291.088 204.692 284.078 201.863C281.319 200.749 277.928 201.203 274.495 200.355C263.119 180.775 251.744 161.196 239.997 140.978C210.164 193.858 180.782 245.939 151.232 298.317C218.07 298.317 284.06 298.317 350.76 298.317C337.126 274.798 323.813 251.834 310.161 228.284C306.768 234.202 303.817 239.35 300.484 245.163C295.636 236.704 291.121 228.824 286.982 220.303ZM247.794 317.056C246.661 316.248 245.529 315.441 243.234 313.804C243.234 321.942 243.234 328.301 243.234 336.095C238.223 329.172 234.217 323.341 229.848 317.794C228.64 316.26 226.355 315.575 223.793 314.037C223.793 324.711 223.793 333.672 223.793 342.833C225.194 342.833 226.438 342.833 228.239 342.833C228.239 336.2 228.239 329.715 228.239 322.277C233.104 328.957 237.169 334.835 241.598 340.425C242.8 341.942 245.102 342.587 247.803 344.158C247.803 334.244 247.803 326.103 247.794 317.056ZM215.617 315.328C215.617 321.816 215.617 328.303 215.617 334.79C215.132 334.848 214.646 334.905 214.161 334.962C210.003 329.224 205.98 323.381 201.601 317.817C200.382 316.268 198.109 315.548 195.421 313.895C195.421 324.595 195.421 333.526 195.421 342.727C196.919 342.727 198.261 342.727 200.117 342.727C200.117 336.108 200.117 329.785 200.117 322.453C204.871 328.992 208.823 334.71 213.117 340.159C214.377 341.758 216.609 342.591 219.436 344.464C219.436 334.336 219.527 326.039 219.306 317.75C219.282 316.845 217.458 315.989 215.617 315.328ZM260.771 318.082C257.369 326.237 253.966 334.393 250.564 342.549C251.097 342.973 251.63 343.398 252.163 343.822C253.517 342.509 255.043 341.327 256.181 339.848C257.441 338.208 257.918 335.489 259.488 334.654C264.033 332.24 270.165 334.879 272.077 339.733C273.212 342.616 274.621 344.139 277.807 342.311C274.444 334.175 271.135 326.032 267.708 317.939C266.082 314.097 263.914 313.962 260.771 318.082ZM334.585 343.032C337.877 343.032 341.168 343.032 344.46 343.032C344.68 342.227 344.901 341.422 345.121 340.617C341.766 336.971 335.952 340.616 332.139 338.475C332.139 335.813 332.139 333.199 332.139 330.304C335.811 330.304 339.262 330.304 343.07 330.304C343.07 329.096 343.208 327.386 343.05 327.359C339.47 326.731 335.857 326.287 332.248 325.808C332.248 323.573 332.248 321.369 332.248 318.876C336.521 318.876 340.464 318.876 344.406 318.876C344.705 318.471 345.003 318.066 345.302 317.66C344.297 316.806 343.33 315.272 342.281 315.213C337.538 314.946 332.771 315.097 327.912 315.097C327.912 324.682 327.912 333.742 327.912 343.032C329.997 343.032 331.815 343.032 334.585 343.032ZM293.565 318.839C295.141 319.274 296.786 319.545 298.277 320.178C300.902 321.294 300.863 321.386 302.273 318.211C295.158 313.143 287.864 313.965 283 320.383C278.107 326.84 279.442 335.936 285.832 340.823C291.001 344.775 300.334 344.286 304.473 336.732C302.047 337.092 300.32 336.874 299.213 337.6C295.76 339.862 292.327 340.13 288.943 337.94C285.253 335.553 283.73 331.842 284.456 327.586C285.241 322.992 287.706 319.614 293.565 318.839ZM176.281 322.713C175.553 315.208 169.408 313.899 157.171 315.795C157.171 324.716 157.171 333.65 157.171 342.794C158.539 342.794 159.759 342.794 161.312 342.794C161.312 338.814 161.312 335.056 161.312 331.214C167.544 330.581 175.051 332.846 176.281 322.713ZM182.889 315.057C182.42 316.138 181.473 317.271 181.581 318.291C181.804 320.395 183.057 322.439 183.058 324.508C183.062 330.529 182.659 336.551 182.406 342.798C184.013 342.798 186.749 342.798 189.568 342.798C186.666 333.532 186.724 324.501 189.708 315.045C187.339 315.045 185.541 315.045 182.889 315.057ZM312.569 343.017C316.524 343.017 320.479 343.017 324.729 343.017C324.729 341.765 324.837 340.03 324.714 340.013C320.59 339.457 316.444 339.066 311.984 338.618C311.984 331.827 311.894 325.061 312.021 318.298C312.087 314.771 310.61 314.514 308.026 315.657C308.026 324.829 308.026 333.725 308.026 343.017C309.351 343.017 310.472 343.017 312.569 343.017ZM237.349 353.086C237.407 352.155 237.465 351.223 237.531 350.173C236.12 350.173 234.727 350.173 233.374 350.173C233.374 352.937 233.374 355.394 233.374 358.282C235.097 356.466 236.379 355.116 237.349 353.086Z" fill="#121212"/>
<path d="M286.605 220.944C291.121 228.824 295.636 236.704 300.484 245.163C303.817 239.35 306.769 234.201 310.161 228.284C323.813 251.834 337.126 274.798 350.76 298.317C284.06 298.317 218.07 298.317 151.232 298.317C180.782 245.939 210.164 193.858 239.997 140.978C251.744 161.196 263.119 180.775 274.402 200.855C272.392 202.85 270.475 204.345 268.334 205.472C258.91 189.232 249.71 173.361 240.101 156.784C214.713 201.822 189.737 246.129 164.448 290.99C167.615 290.99 169.956 290.734 172.218 291.045C176.579 291.646 179.017 290.036 181.101 286.021C186.378 275.852 192.249 265.991 197.886 256.009C201.864 248.963 205.847 241.92 210.123 234.353C213.637 240.282 216.787 245.598 220.195 251.35C230.24 233.514 239.898 216.367 249.943 198.532C263.09 221.165 275.851 243.131 288.924 265.634C290.864 262.303 292.17 259.603 293.9 257.209C295.939 254.387 295.535 252.077 293.809 249.213C288.667 240.68 283.829 231.964 279.254 223.221C281.958 222.396 284.282 221.67 286.605 220.944ZM240.296 286.257C241.75 290.276 244.537 291.583 248.765 291.071C252.209 290.655 255.742 291.01 259.236 290.981C264.382 290.939 270.607 292.624 274.377 290.315C278.355 287.88 279.856 281.534 282.699 277.062C284.274 274.586 283.939 272.73 282.508 270.296C273.091 254.279 263.852 238.158 254.546 222.076C253.18 219.715 251.77 217.379 250.002 214.392C241.584 229.326 233.495 243.55 225.631 257.896C225.077 258.907 225.845 261.011 226.562 262.291C230.941 270.105 235.483 277.827 240.296 286.257ZM331.579 280.938C324.578 268.851 317.577 256.764 310.52 244.581C305.607 249.907 304.8 254.569 309.095 260.586C314.283 267.854 318.835 275.711 322.618 283.802C325.712 290.416 330.014 292.328 336.976 290.51C335.303 287.543 333.621 284.562 331.579 280.938ZM212.122 265.545C216.288 258.289 216.288 258.289 209.941 250.61C202.452 263.919 195.033 277.102 187.516 290.462C197.434 291.839 197.432 291.837 201.845 283.973C205.166 278.057 208.496 272.145 212.122 265.545ZM306.774 271.752C304.785 268.421 302.796 265.09 301.114 262.273C288.971 271.826 296.726 280.554 302.408 288.792C306.008 294.012 312.097 289.626 318.197 291.572C313.991 284.329 310.534 278.374 306.774 271.752ZM215.775 275.28C212.896 280.379 210.017 285.477 207.124 290.601C216.207 290.601 224.709 290.601 233.724 290.601C229.147 282.688 224.874 275.301 220.299 267.39C218.718 270.095 217.399 272.352 215.775 275.28ZM284.337 290.083C287.456 290.472 290.576 290.862 294.644 291.37C292.436 287.628 290.909 285.04 289.006 281.814C287.301 284.866 286.029 287.143 284.337 290.083Z" fill="white"/>
<path d="M268.558 205.84C270.475 204.345 272.392 202.85 274.567 201.149C277.928 201.203 281.319 200.749 284.078 201.863C291.088 204.692 292.249 213.287 286.794 220.624C284.282 221.67 281.958 222.396 278.868 223.155C275.411 221.811 272.188 220.972 270.151 218.943C266.454 215.261 267.93 210.372 268.558 205.84Z" fill="#FB3232"/>
<path d="M247.799 317.509C247.803 326.103 247.803 334.244 247.803 344.158C245.102 342.587 242.8 341.942 241.598 340.425C237.169 334.835 233.104 328.957 228.239 322.277C228.239 329.715 228.239 336.199 228.239 342.833C226.438 342.833 225.194 342.833 223.793 342.833C223.793 333.672 223.793 324.711 223.793 314.037C226.355 315.575 228.64 316.26 229.849 317.794C234.217 323.341 238.223 329.172 243.234 336.095C243.234 328.301 243.234 321.942 243.234 313.804C245.529 315.441 246.662 316.248 247.799 317.509Z" fill="white"/>
<path d="M216.043 315.219C217.458 315.989 219.282 316.845 219.306 317.75C219.527 326.039 219.436 334.336 219.436 344.464C216.609 342.591 214.377 341.758 213.117 340.159C208.823 334.71 204.871 328.992 200.117 322.453C200.117 329.785 200.117 336.108 200.117 342.727C198.261 342.727 196.919 342.727 195.421 342.727C195.421 333.526 195.421 324.595 195.421 313.895C198.109 315.548 200.382 316.268 201.601 317.817C205.98 323.381 210.003 329.224 214.161 334.962C214.646 334.905 215.132 334.848 215.617 334.79C215.617 328.303 215.617 321.816 216.043 315.219Z" fill="white"/>
<path d="M260.893 317.716C263.914 313.962 266.082 314.097 267.708 317.939C271.135 326.032 274.444 334.175 277.807 342.311C274.621 344.139 273.212 342.616 272.077 339.733C270.165 334.878 264.033 332.24 259.488 334.654C257.918 335.488 257.441 338.208 256.181 339.848C255.043 341.327 253.517 342.509 252.163 343.822C251.63 343.398 251.097 342.973 250.564 342.549C253.967 334.393 257.369 326.237 260.893 317.716ZM267.115 327.464C266.276 325.478 265.438 323.492 264.234 320.643C262.72 324.293 261.565 327.078 260.127 330.545C262.7 330.545 264.617 330.676 266.486 330.438C266.873 330.389 267.085 328.968 267.115 327.464Z" fill="white"/>
<path d="M334.109 343.032C331.815 343.032 329.997 343.032 327.912 343.032C327.912 333.742 327.912 324.682 327.912 315.097C332.771 315.097 337.538 314.946 342.281 315.213C343.33 315.272 344.297 316.806 345.302 317.66C345.003 318.065 344.705 318.471 344.407 318.876C340.464 318.876 336.522 318.876 332.248 318.876C332.248 321.369 332.248 323.573 332.248 325.808C335.857 326.287 339.47 326.731 343.05 327.359C343.208 327.386 343.07 329.096 343.07 330.304C339.263 330.304 335.811 330.304 332.139 330.304C332.139 333.199 332.139 335.813 332.139 338.475C335.952 340.616 341.766 336.971 345.121 340.617C344.901 341.422 344.68 342.227 344.46 343.032C341.168 343.032 337.877 343.032 334.109 343.032Z" fill="white"/>
<path d="M293.157 318.866C287.706 319.614 285.241 322.992 284.456 327.586C283.73 331.842 285.253 335.553 288.943 337.94C292.327 340.129 295.76 339.862 299.213 337.599C300.32 336.874 302.047 337.092 304.473 336.732C300.334 344.286 291.001 344.775 285.832 340.823C279.442 335.936 278.107 326.84 283 320.383C287.864 313.965 295.158 313.143 302.273 318.211C300.863 321.386 300.902 321.294 298.277 320.178C296.786 319.545 295.141 319.274 293.157 318.866Z" fill="white"/>
<path d="M176.283 323.076C175.051 332.846 167.544 330.581 161.312 331.214C161.312 335.056 161.312 338.814 161.312 342.794C159.759 342.794 158.539 342.794 157.171 342.794C157.171 333.65 157.171 324.716 157.171 315.795C169.408 313.899 175.553 315.208 176.283 323.076ZM161.175 323.462C160.498 329.001 164.694 326.733 167.097 327.025C169.919 327.367 172.544 326.115 171.923 323.095C171.586 321.457 168.924 319.48 167.067 319.183C164.866 318.831 160.507 316.995 161.175 323.462Z" fill="white"/>
<path d="M183.316 315.051C185.541 315.045 187.339 315.045 189.708 315.045C186.724 324.501 186.666 333.532 189.568 342.798C186.749 342.798 184.013 342.798 182.406 342.798C182.659 336.551 183.062 330.529 183.058 324.508C183.057 322.439 181.804 320.395 181.581 318.291C181.473 317.271 182.42 316.138 183.316 315.051Z" fill="white"/>
<path d="M312.08 343.016C310.472 343.016 309.351 343.016 308.026 343.016C308.026 333.725 308.026 324.829 308.026 315.657C310.61 314.514 312.087 314.771 312.021 318.298C311.894 325.061 311.984 331.827 311.984 338.618C316.444 339.066 320.59 339.457 324.714 340.013C324.838 340.03 324.73 341.765 324.73 343.016C320.479 343.016 316.524 343.016 312.08 343.016Z" fill="white"/>
<path d="M237.505 353.426C236.379 355.116 235.097 356.466 233.374 358.281C233.374 355.394 233.374 352.937 233.374 350.173C234.727 350.173 236.12 350.173 237.531 350.173C237.465 351.223 237.407 352.155 237.505 353.426Z" fill="#121212"/>
<path d="M268.334 205.472C267.93 210.372 266.454 215.261 270.151 218.943C272.188 220.972 275.411 221.811 278.486 223.253C283.829 231.964 288.667 240.68 293.809 249.213C295.535 252.077 295.939 254.387 293.9 257.209C292.17 259.603 290.864 262.303 288.924 265.634C275.851 243.131 263.09 221.165 249.943 198.532C239.898 216.367 230.24 233.514 220.195 251.35C216.787 245.598 213.637 240.282 210.123 234.353C205.847 241.919 201.864 248.963 197.886 256.009C192.249 265.991 186.378 275.852 181.1 286.021C179.017 290.036 176.579 291.646 172.218 291.045C169.956 290.734 167.615 290.99 164.448 290.99C189.737 246.129 214.713 201.822 240.101 156.784C249.71 173.361 258.91 189.232 268.334 205.472Z" fill="#121212"/>
<path d="M240.133 285.918C235.483 277.827 230.941 270.105 226.562 262.291C225.845 261.011 225.077 258.907 225.631 257.896C233.495 243.55 241.584 229.326 250.002 214.392C251.77 217.379 253.18 219.715 254.546 222.076C263.851 238.158 273.091 254.279 282.508 270.296C283.939 272.73 284.274 274.586 282.699 277.062C279.856 281.534 278.354 287.88 274.377 290.315C270.607 292.624 264.382 290.939 259.236 290.981C255.742 291.01 252.208 290.655 248.765 291.071C244.537 291.583 241.75 290.276 240.133 285.918Z" fill="#121212"/>
<path d="M331.76 281.259C333.621 284.562 335.303 287.543 336.976 290.51C330.014 292.328 325.712 290.416 322.618 283.802C318.835 275.711 314.283 267.854 309.095 260.586C304.8 254.569 305.607 249.906 310.52 244.581C317.577 256.764 324.578 268.851 331.76 281.259Z" fill="#121212"/>
<path d="M211.971 265.888C208.495 272.145 205.166 278.057 201.845 283.973C197.431 291.837 197.434 291.839 187.516 290.462C195.033 277.102 202.452 263.919 209.941 250.61C216.288 258.289 216.288 258.289 211.971 265.888Z" fill="#121212"/>
<path d="M306.925 272.085C310.534 278.374 313.991 284.329 318.197 291.572C312.097 289.626 306.008 294.012 302.408 288.792C296.726 280.554 288.971 271.826 301.114 262.273C302.796 265.09 304.785 268.421 306.925 272.085Z" fill="#121212"/>
<path d="M215.928 274.945C217.399 272.352 218.718 270.095 220.299 267.39C224.874 275.301 229.147 282.688 233.724 290.601C224.709 290.601 216.207 290.601 207.124 290.601C210.017 285.477 212.896 280.379 215.928 274.945Z" fill="#121212"/>
<path d="M284.547 289.751C286.029 287.143 287.301 284.866 289.006 281.814C290.909 285.04 292.436 287.628 294.644 291.37C290.576 290.862 287.456 290.472 284.547 289.751Z" fill="#121212"/>
<path d="M267.246 327.822C267.085 328.968 266.873 330.389 266.486 330.438C264.616 330.676 262.7 330.545 260.126 330.545C261.565 327.078 262.72 324.293 264.234 320.643C265.437 323.492 266.276 325.478 267.246 327.822Z" fill="#121212"/>
<path d="M161.175 323.009C160.506 316.995 164.866 318.831 167.067 319.183C168.924 319.48 171.586 321.457 171.923 323.095C172.544 326.115 169.919 327.367 167.097 327.025C164.694 326.733 160.498 329.001 161.175 323.009Z" fill="#121212"/>
</g>
<defs>
<clipPath id="clip0_8_113">
<rect width="500" height="500" fill="white"/>
</clipPath>
</defs>
</svg>
