<svg width="500" height="500" viewBox="0 0 500 500" fill="none" xmlns="http://www.w3.org/2000/svg">
<g clip-path="url(#clip0_8_92)">
<path d="M282 501C188 501 94.5 501 1.00003 501C1.00002 334.333 1.00002 167.667 1 1.00015C167.667 1.00011 334.333 1.00011 501 1.00006C501 167.667 501 334.333 501 501C428.167 501 355.333 501 282 501ZM307.5 298.645C321.7 298.645 335.9 298.645 350.946 298.645C337.124 274.794 323.837 251.865 310.168 228.277C306.855 234.054 303.846 239.3 300.546 245.056C296.682 238.526 293.155 232.564 289.66 226.656C287.159 227.745 285.043 228.667 282.489 229.778C286.472 236.697 290.479 243.55 294.348 250.48C294.99 251.632 295.688 253.435 295.229 254.397C293.486 258.055 291.278 261.49 288.903 265.599C275.768 242.981 263.054 221.088 249.949 198.523C239.878 216.382 230.19 233.562 220.141 251.382C216.637 245.39 213.58 240.164 210.251 234.472C209.133 236.288 208.24 237.636 207.447 239.041C198.295 255.238 189.192 271.463 179.956 287.611C179.169 288.987 177.614 290.661 176.248 290.828C172.581 291.276 168.824 290.981 164.45 290.981C189.881 245.884 214.858 201.594 240.099 156.833C248.786 171.768 256.998 185.885 265.203 199.992C267.552 198.154 269.453 196.667 271.452 195.103C260.973 177.073 250.675 159.355 239.996 140.981C210.168 193.851 180.777 245.947 151.046 298.645C203.553 298.645 255.026 298.645 307.5 298.645ZM278.572 200.826C271.14 201.447 267.53 205.529 267.879 212.916C268.172 219.098 272.581 223.129 279.036 223.119C285.448 223.109 289.906 219.021 290.196 212.885C290.543 205.57 286.856 201.444 278.572 200.826ZM195.317 322.647C195.317 329.28 195.317 335.914 195.317 342.991C197.041 342.884 198.367 342.802 200.195 342.688C200.195 335.935 200.195 329.629 200.195 322.463C204.91 328.959 208.88 334.707 213.19 340.187C214.427 341.761 216.647 342.563 219.189 344.223C219.189 333.555 219.189 324.587 219.189 315.6C216.46 314.573 214.999 314.936 215.08 318.206C215.217 323.748 215.117 329.296 215.117 336.333C210.012 329.304 205.978 323.471 201.602 317.906C200.39 316.365 198.163 315.623 195.317 313.831C195.317 317.735 195.317 319.716 195.317 322.647ZM227.77 315.346C226.506 315.346 225.243 315.346 223.855 315.346C223.855 324.656 223.855 333.614 223.855 342.8C225.207 342.8 226.439 342.8 228.201 342.8C228.201 336.168 228.201 329.672 228.201 322.142C233.084 328.831 237.155 334.678 241.56 340.262C242.769 341.794 244.977 342.539 247.714 344.269C247.714 334.272 247.67 326.135 247.734 318C247.762 314.481 245.93 314.937 243.17 315.698C243.17 322.218 243.17 328.534 243.17 336.025C237.719 328.597 233.034 322.214 227.77 315.346ZM328.985 343.02C334.111 343.02 339.237 343.02 344.705 343.02C344.635 341.672 344.689 339.944 344.524 339.923C340.367 339.392 336.187 339.04 332.095 338.664C332.095 335.78 332.095 333.156 332.095 330.086C335.874 330.086 339.444 330.086 344.141 330.086C341.037 323.703 335.339 328.24 332.052 325.684C332.052 323.659 332.052 321.56 332.052 318.978C336.281 318.978 340.361 318.978 344.445 318.978C344.224 314.618 341.074 314.034 328.106 315.49C328.106 324.579 328.106 333.675 328.985 343.02ZM256.697 328.022C254.677 332.853 252.657 337.683 250.637 342.514C251.104 342.929 251.571 343.344 252.037 343.76C253.402 342.504 255.561 341.471 255.984 339.953C257.362 335.006 260.351 334.199 265.105 334.027C269.924 333.852 271.138 336.353 272.194 339.808C273.087 342.731 274.767 343.866 277.84 342.552C274.425 334.299 271.09 326.009 267.5 317.831C266.986 316.66 265.297 315.47 264.039 315.335C263.107 315.234 261.581 316.623 261.035 317.708C259.478 320.806 258.285 324.088 256.697 328.022ZM157.043 341.109C158.141 341.915 159.238 342.722 161.29 344.23C161.29 338.803 161.29 335.041 161.29 330.995C163.931 330.995 166.258 331.131 168.563 330.966C173.138 330.637 176.105 327.614 176.225 323.38C176.345 319.135 173.574 315.713 169.065 315.304C165.176 314.952 161.229 315.231 157.041 315.231C157.041 323.922 157.041 332.05 157.043 341.109ZM288.033 316.202C286.715 317.197 285.242 318.042 284.106 319.213C278.324 325.17 278.873 334.53 285.029 340.08C290.404 344.925 300.266 344.315 304.445 336.73C301.989 337.14 300.325 336.99 299.173 337.687C294.914 340.263 290.65 340.071 287.374 336.81C283.59 333.043 283.157 327.105 286.344 322.689C289.22 318.705 293.472 317.752 298.206 320.032C300.817 321.289 300.817 321.289 302.203 318.153C298.151 314.842 293.708 313.916 288.033 316.202ZM187.52 337.066C187.518 333.92 187.418 330.771 187.544 327.63C187.661 324.732 187.204 321.403 188.469 319.056C190.29 315.678 189.524 315.057 186.279 315.101C184.673 315.123 183.066 315.105 181.17 315.105C184.216 324.666 184.36 333.646 181.268 342.607C184.216 342.607 186.865 342.607 190.251 342.607C189.092 340.614 188.32 339.289 187.52 337.066ZM311.972 326.519C311.971 323.694 311.888 320.867 311.992 318.046C312.119 314.608 310.434 314.705 308.06 315.637C308.06 324.789 308.06 333.702 308.06 342.812C313.671 342.812 319.079 342.812 324.794 342.812C324.734 341.651 324.782 339.911 324.622 339.892C320.465 339.391 316.286 339.069 311.972 338.705C311.972 334.789 311.972 331.147 311.972 326.519Z" fill="white"/>
<path d="M307 298.645C255.026 298.645 203.553 298.645 151.047 298.645C180.777 245.947 210.168 193.851 239.996 140.981C250.675 159.355 260.973 177.073 271.452 195.103C269.453 196.667 267.552 198.154 265.203 199.992C256.998 185.885 248.786 171.768 240.099 156.833C214.858 201.594 189.881 245.884 164.45 290.981C168.824 290.981 172.581 291.276 176.248 290.828C177.614 290.661 179.169 288.987 179.956 287.611C189.192 271.463 198.295 255.238 207.447 239.041C208.24 237.636 209.133 236.288 210.251 234.472C213.58 240.164 216.637 245.39 220.141 251.382C230.19 233.562 239.878 216.382 249.95 198.523C263.054 221.088 275.768 242.981 288.903 265.599C291.278 261.49 293.486 258.055 295.229 254.397C295.688 253.435 294.99 251.632 294.348 250.48C290.479 243.55 286.472 236.697 282.489 229.778C285.043 228.667 287.159 227.745 289.66 226.656C293.155 232.564 296.682 238.526 300.546 245.056C303.846 239.3 306.855 234.054 310.168 228.277C323.837 251.865 337.124 274.794 350.946 298.645C335.9 298.645 321.7 298.645 307 298.645ZM260.006 231.531C256.804 226.026 253.603 220.522 250.007 214.338C241.64 229.225 233.654 243.32 225.867 257.525C225.276 258.604 225.681 260.683 226.339 261.914C229.075 267.03 232.765 271.733 234.856 277.076C239.312 288.466 246.668 293.436 259.065 291.133C264.054 290.206 270.484 292.717 274.194 290.383C278.291 287.805 280.272 281.586 282.641 276.695C283.447 275.033 283.353 272.184 282.447 270.561C275.249 257.673 267.757 244.95 260.006 231.531ZM334.082 290.996C334.968 290.996 335.854 290.996 337.369 290.996C328.163 275.073 319.376 259.874 310.532 244.579C305.533 249.929 304.886 254.583 309.101 260.599C314.602 268.45 319.21 276.977 323.656 285.498C325.867 289.737 328.4 291.993 334.082 290.996ZM203.896 261.398C198.441 271.087 192.986 280.775 187.231 290.998C189.406 290.998 190.59 290.839 191.716 291.026C196.219 291.776 198.9 290.057 200.919 285.845C203.99 279.443 207.229 272.989 211.383 267.273C215.874 261.094 215.225 256.02 210.172 250.387C208.13 253.916 206.161 257.32 203.896 261.398ZM296.255 268.849C293.643 272.1 293.712 275.18 296.219 278.628C298.449 281.695 300 285.247 302.07 288.443C302.767 289.517 304.089 290.791 305.21 290.877C309.112 291.174 313.051 290.992 317.861 290.992C311.926 280.751 306.408 271.232 300.66 261.314C299.149 263.961 297.925 266.104 296.255 268.849ZM208.501 288.091C208.095 288.927 207.69 289.763 207.245 290.68C216.117 290.68 224.615 290.68 233.77 290.68C229.169 282.741 224.871 275.325 220.231 267.318C216.19 274.505 212.551 280.979 208.501 288.091ZM290.319 290.998C291.496 290.894 292.673 290.789 294.241 290.649C292.406 287.554 290.881 284.981 289.01 281.824C287.051 285.316 285.562 287.969 283.862 290.998C286.177 290.998 287.829 290.998 290.319 290.998Z" fill="#090909"/>
<path d="M278.997 200.826C286.856 201.444 290.543 205.57 290.196 212.885C289.906 219.021 285.448 223.109 279.036 223.119C272.581 223.129 268.172 219.098 267.879 212.916C267.53 205.529 271.14 201.447 278.997 200.826Z" fill="#FF3535"/>
<path d="M195.317 322.172C195.317 319.716 195.317 317.735 195.317 313.831C198.163 315.623 200.39 316.365 201.602 317.906C205.978 323.471 210.012 329.304 215.117 336.333C215.117 329.296 215.217 323.748 215.08 318.206C214.999 314.936 216.46 314.573 219.189 315.6C219.189 324.587 219.189 333.555 219.189 344.223C216.647 342.563 214.427 341.761 213.19 340.187C208.88 334.707 204.91 328.959 200.195 322.463C200.195 329.629 200.195 335.935 200.195 342.688C198.367 342.802 197.041 342.884 195.317 342.991C195.317 335.914 195.317 329.28 195.317 322.172Z" fill="#191919"/>
<path d="M228.059 315.588C233.034 322.214 237.719 328.597 243.17 336.025C243.17 328.534 243.17 322.218 243.17 315.698C245.93 314.937 247.762 314.481 247.734 318C247.67 326.135 247.714 334.272 247.714 344.269C244.977 342.539 242.769 341.794 241.56 340.262C237.156 334.678 233.085 328.831 228.201 322.142C228.201 329.672 228.201 336.168 228.201 342.8C226.439 342.8 225.207 342.8 223.855 342.8C223.855 333.614 223.855 324.656 223.855 315.346C225.243 315.346 226.507 315.346 228.059 315.588Z" fill="#101010"/>
<path d="M328.546 342.895C328.106 333.675 328.106 324.579 328.106 315.49C341.074 314.034 344.224 314.618 344.445 318.978C340.361 318.978 336.281 318.978 332.052 318.978C332.052 321.56 332.052 323.659 332.052 325.684C335.339 328.24 341.037 323.703 344.141 330.086C339.444 330.086 335.874 330.086 332.095 330.086C332.095 333.156 332.095 335.78 332.095 338.664C336.187 339.04 340.367 339.392 344.524 339.923C344.689 339.944 344.635 341.672 344.705 343.02C339.237 343.02 334.111 343.02 328.546 342.895Z" fill="#141414"/>
<path d="M256.823 327.659C258.285 324.088 259.478 320.806 261.035 317.708C261.581 316.623 263.107 315.234 264.039 315.335C265.297 315.47 266.986 316.66 267.5 317.831C271.091 326.009 274.425 334.299 277.84 342.552C274.767 343.866 273.087 342.731 272.194 339.808C271.138 336.353 269.924 333.852 265.105 334.027C260.351 334.199 257.362 335.006 255.984 339.953C255.561 341.471 253.402 342.504 252.037 343.76C251.571 343.344 251.104 342.929 250.637 342.514C252.657 337.683 254.677 332.853 256.823 327.659ZM265.458 323.332C265.17 322.683 264.882 322.033 264.218 320.533C262.662 324.304 261.448 327.244 260.175 330.327C263.141 330.327 265.498 330.327 268.252 330.327C267.322 327.91 266.565 325.942 265.458 323.332Z" fill="#0D0D0D"/>
<path d="M157.042 340.643C157.041 332.05 157.041 323.922 157.041 315.231C161.229 315.231 165.176 314.952 169.065 315.304C173.574 315.713 176.345 319.135 176.225 323.38C176.105 327.614 173.138 330.637 168.563 330.966C166.258 331.131 163.931 330.995 161.29 330.995C161.29 335.041 161.29 338.803 161.29 344.23C159.238 342.722 158.141 341.915 157.042 340.643ZM162.686 327.092C164.518 327.092 166.589 327.629 168.115 326.947C169.748 326.217 170.869 324.338 172.214 322.961C170.814 321.626 169.622 319.669 167.962 319.117C165.942 318.445 163.529 318.957 160.805 318.957C161.196 322.128 161.492 324.527 162.686 327.092Z" fill="#0F0F0F"/>
<path d="M288.398 316.061C293.708 313.916 298.151 314.842 302.203 318.153C300.817 321.289 300.817 321.289 298.206 320.032C293.472 317.752 289.22 318.705 286.344 322.689C283.157 327.105 283.59 333.043 287.374 336.81C290.65 340.071 294.914 340.263 299.173 337.687C300.325 336.99 301.989 337.14 304.445 336.73C300.266 344.315 290.404 344.925 285.029 340.08C278.873 334.53 278.324 325.17 284.106 319.213C285.242 318.042 286.715 317.197 288.398 316.061Z" fill="#101010"/>
<path d="M187.534 337.514C188.32 339.289 189.091 340.614 190.251 342.607C186.865 342.607 184.216 342.607 181.268 342.607C184.36 333.646 184.216 324.666 181.17 315.105C183.066 315.105 184.673 315.123 186.279 315.101C189.524 315.057 190.29 315.678 188.469 319.056C187.204 321.403 187.661 324.732 187.544 327.63C187.418 330.771 187.518 333.92 187.534 337.514Z" fill="#1D1D1D"/>
<path d="M311.972 327.012C311.972 331.147 311.972 334.79 311.972 338.705C316.286 339.069 320.465 339.391 324.622 339.892C324.782 339.911 324.734 341.651 324.794 342.812C319.079 342.812 313.671 342.812 308.06 342.812C308.06 333.702 308.06 324.789 308.06 315.637C310.434 314.705 312.119 314.608 311.992 318.046C311.888 320.867 311.971 323.695 311.972 327.012Z" fill="#0B0B0B"/>
<path d="M260.18 231.854C267.757 244.95 275.249 257.673 282.447 270.561C283.353 272.184 283.447 275.033 282.641 276.695C280.272 281.586 278.291 287.805 274.194 290.383C270.484 292.717 264.054 290.206 259.065 291.133C246.668 293.436 239.312 288.466 234.856 277.076C232.765 271.733 229.075 267.03 226.339 261.914C225.681 260.683 225.276 258.604 225.867 257.525C233.654 243.32 241.64 229.225 250.007 214.338C253.603 220.522 256.804 226.026 260.18 231.854Z" fill="#FDFDFD"/>
<path d="M333.655 290.996C328.4 291.993 325.867 289.737 323.656 285.498C319.21 276.977 314.602 268.45 309.101 260.599C304.886 254.583 305.533 249.929 310.532 244.579C319.376 259.874 328.163 275.073 337.369 290.996C335.854 290.996 334.968 290.996 333.655 290.996Z" fill="#F8F8F8"/>
<path d="M204.043 261.061C206.161 257.32 208.13 253.916 210.172 250.387C215.225 256.02 215.874 261.094 211.383 267.273C207.229 272.989 203.989 279.443 200.919 285.845C198.899 290.057 196.219 291.776 191.716 291.026C190.59 290.839 189.406 290.998 187.23 290.998C192.986 280.775 198.441 271.087 204.043 261.061Z" fill="#F7F7F7"/>
<path d="M296.478 268.548C297.925 266.104 299.149 263.961 300.66 261.314C306.408 271.232 311.926 280.751 317.861 290.992C313.051 290.992 309.112 291.174 305.21 290.877C304.089 290.791 302.766 289.517 302.07 288.443C300 285.247 298.449 281.695 296.219 278.628C293.712 275.18 293.643 272.1 296.478 268.548Z" fill="#F9F9F9"/>
<path d="M208.706 287.772C212.551 280.979 216.19 274.505 220.231 267.318C224.871 275.325 229.169 282.741 233.77 290.68C224.615 290.68 216.117 290.68 207.245 290.68C207.69 289.763 208.095 288.927 208.706 287.772Z" fill="#FAFAFA"/>
<path d="M289.9 290.998C287.829 290.998 286.177 290.998 283.862 290.998C285.562 287.969 287.051 285.316 289.01 281.824C290.881 284.981 292.406 287.554 294.241 290.649C292.673 290.789 291.496 290.894 289.9 290.998Z" fill="#F7F7F7"/>
<path d="M265.633 323.654C266.565 325.942 267.322 327.91 268.252 330.327C265.498 330.327 263.141 330.327 260.175 330.327C261.448 327.244 262.662 324.304 264.218 320.533C264.882 322.033 265.17 322.683 265.633 323.654Z" fill="#D9D9D9"/>
<path d="M162.237 327.009C161.492 324.527 161.196 322.128 160.805 318.957C163.529 318.957 165.942 318.445 167.962 319.117C169.622 319.669 170.814 321.626 172.214 322.961C170.869 324.338 169.748 326.217 168.115 326.947C166.589 327.629 164.518 327.092 162.237 327.009Z" fill="#F8F8F8"/>
</g>
<defs>
<clipPath id="clip0_8_92">
<rect width="500" height="500" fill="white"/>
</clipPath>
</defs>
</svg>
